<svg xmlns="http://www.w3.org/2000/svg" viewBox="0 0 323.7 323.7" width="512" height="512">
  <rect width="323.7" height="323.7" fill="#061829" rx="40"/>
  <g transform="translate(72.4, 30)">
    <style>.st0{fill-rule:evenodd;clip-rule:evenodd;fill:#0072B0;}.st1{fill-rule:evenodd;clip-rule:evenodd;fill:#C9961A;}</style>
    <path class="st0" d="M136.7,112.6c-23.8-35.8-85.4,9.4-61.6-82.3C65,50.5,58.4,72.5,56.1,95.8c3.5,13.7,10.8,27,19.3,37.7c1.4,1.8,2.9,3.6,4.6,5.4c8.5,9.3,18,16.3,26.6,20.1c2.4,1,4.7,1.8,6.8,2.2c-12.1-10.7-33.8-39.8-20.2-52.7C101.6,100.5,120,101.5,136.7,112.6L136.7,112.6z M62.8,166.6c6.1,20.7,15.7,40.1,28.3,57.5c-5.4-13.7-9.2-28.1-11.2-43c-4.2-3.2-8.5-6.6-12.7-10.3C65.7,169.4,64.2,168,62.8,166.6L62.8,166.6z"/>
    <path class="st0" d="M89.2,53.6c6.6,0,12,5.4,12,12c0,6.7-5.4,12.1-12,12.1c-6.7,0-12.1-5.4-12.1-12.1C77.1,59,82.5,53.6,89.2,53.6L89.2,53.6z"/>
    <path class="st1" d="M110.1,108.9c1.3,1.2,2.4,2.5,3.7,3.8c21,23.1,28.2,49.6,16.1,59.2C95.9,198.7,1.8,86.6,65.8,43.1c-33.7,26.7-14.9,74.5,9,100.8c17.8,19.7,40.1,29.3,49.8,21.7c9.7-7.7,3.2-29.8-14.7-49.4c-2.5-2.7-5.1-5.2-7.7-7.6c2.2-0.3,4.4-0.3,6.9,0.1C109.5,108.8,109.8,108.8,110.1,108.9L110.1,108.9z"/>
    <path class="st1" d="M39.8,81.6c-1.3,0.8-2.6,1.7-3.7,2.8c-15.6,15-1.4,51.3,31.7,81c46.8,42.1,98,45.1,87.3,5.1c1,6.7-1.5,12.7-5.2,16.3c-12,11.9-45.6-0.6-75.1-27.7c-27.4-25.3-41.6-54.5-33.9-67.9C40.3,88,40,84.8,39.8,81.6L39.8,81.6z"/>
    <path class="st1" d="M144.1,232.2c-22.7-9.1-92-5.5-113.7,6C63.5,216.7,109.1,214.3,144.1,232.2L144.1,232.2z"/>
  </g>
</svg>
